<svg xmlns="http://www.w3.org/2000/svg" width="73" height="167" fill="none" viewBox="0 0 73 167"><g fill="#fff" fill-opacity=".3" clip-path="url(#clip0_1443_2023)"><path d="m83.818 41.37.124 12.055-12.709.131-.124-12.054zm-28.866.298.124 12.054-12.708.131-.125-12.054zm48.426 23.783.133 12.988-92.41.95-.133-12.987zm-1.348-16.032.131 12.733-87.385.9-.131-12.734zm-4.856-21.854q.056 5.348-4.042 9.295-4.096 4.033-11.76 6.234-7.662 2.201-18.4 2.312-10.739.111-18.544-1.932-7.706-2.043-11.885-5.99-4.08-3.864-4.134-9.211-.055-5.264 3.944-9.295 4.098-3.948 11.76-6.149 7.76-2.202 18.5-2.313 10.739-.11 18.444 1.933 7.708 2.043 11.884 5.905 4.179 3.948 4.233 9.21m-15.073.155q-.017-1.698-2-2.866-1.982-1.083-6.224-1.634t-11.139-.48q-6.798.07-11.126.71-4.23.637-6.19 1.76-1.957 1.21-1.94 2.907.018 1.783 2 2.866 1.983 1.169 6.225 1.72 4.341.548 11.139.479 6.896-.071 11.126-.709 4.23-.637 6.189-1.847 1.958-1.124 1.94-2.906m15.956 85.577q.065 6.282-2.938 11.322-2.902 5.124-8.193 8.065-5.191 3.025-11.989 3.095-6.7.07-12.05-2.848-5.35-2.83-8.456-7.893-3.008-4.978-3.072-11.26t2.839-11.405q3.001-5.04 8.292-8.066 5.289-3.026 11.988-3.095 6.798-.07 12.05 2.847 5.35 2.916 8.358 7.895 3.106 5.062 3.17 11.343m-13.596.14q-.024-2.462-1.13-4.488-1.103-2.025-3.284-3.192-2.18-1.166-5.43-1.133-3.252.034-5.505 1.246-2.156 1.21-3.218 3.259-1.064 2.049-1.038 4.51.026 2.462 1.13 4.403 1.103 2.026 3.284 3.193 2.279 1.165 5.529 1.131 3.251-.033 5.406-1.244 2.156-1.211 3.218-3.259 1.064-1.963 1.038-4.426m19.796 27.898.141 13.667-92.804.955-.14-13.667zM28.85 90.322l12.694-1.659q.07 6.877.255 15.195.282 8.316.964 17.139a195 195 0 0 0 2.245 17.042l-11.419 1.051a134.5 134.5 0 0 1-3.033-17.118 256 256 0 0 1-1.356-16.796 612 612 0 0 1-.35-14.854"/></g><defs><clipPath id="clip0_1443_2023"><path fill="#fff" d="m112.803 0 1.697 164.898L1.697 166.06 0 1.161z"/></clipPath></defs></svg>